<svg width="121" height="41" viewBox="0 0 121 41" fill="none" xmlns="http://www.w3.org/2000/svg">
<path d="M10.9644 15.1398C11.3072 12.9551 13.417 10.0708 13.417 10.0708C13.417 10.0708 9.59035 9.95785 7.53074 11.0846C5.61534 12.1325 3.60656 15.1398 3.60656 15.1398C3.60656 15.1398 2.35358 17.4386 2.13509 19.1947C1.90987 21.0049 1.90162 22.0922 2.62551 23.7569C3.41069 25.5625 3.8156 26.8301 5.07822 28.3188C6.95523 30.5319 8.47139 31.4586 10.9644 32.881C13.5678 34.3664 15.3624 34.611 18.3222 34.9086C21.9648 35.2747 24.2333 35.2709 27.6422 33.8948C30.9611 32.5549 35 28.319 35 28.319L27.6422 22.7431C27.6422 22.7431 25.0724 24.3629 23.2275 24.7707C21.3542 25.1848 20.1917 25.2027 18.3222 24.7707C15.7251 24.1705 12.436 21.2225 12.436 21.2225C12.436 21.2225 11.2432 19.4774 10.9644 18.1811C10.7151 17.0217 10.7804 16.3122 10.9644 15.1398Z" fill="#0F2A5C"/>
<path d="M8 7.22L0 11.7284C0 11.7284 2.18204 6.99738 4.5 4.71533C5.89273 3.34419 6.75525 2.58806 8.5 1.70974C10.6581 0.623304 14.5 0.206937 14.5 0.206937C14.5 0.206937 18.7894 -0.148379 21.5 0.206937C23.8948 0.520866 25.3316 0.64401 27.5 1.70974C29.745 2.81311 32.5 5.7172 32.5 5.7172L25 10.7265C25 10.7265 20.9217 8.11888 18 7.22C15.9131 6.57794 14.6815 6.13326 12.5 6.21813C10.7011 6.28812 8 7.22 8 7.22Z" fill="#0F2A5C"/>
<path d="M47.0246 21.3025C48.6549 24.0642 53.5246 26.3118 53.5246 26.3118L56.5246 34.8277C56.5246 34.8277 52.796 34.8945 50.5225 34.3267C47.8903 33.6694 47.0052 33.1758 45.0225 31.3211C42.9641 29.3957 41.8529 28.0058 41.0225 25.3099C40.4438 23.4314 40.12 22.2642 40.0225 20.3006C39.9256 18.35 40.1478 17.2148 40.5223 15.301L40.5242 15.2913C40.8453 13.6511 40.8081 12.7933 41.5246 11.2838C42.7341 8.73595 43.5686 7.30234 45.5246 5.27264C47.6691 3.04743 48.9774 1.75115 52.0246 0.764209C54.8115 -0.138418 56.6112 -0.0386344 59.5246 0.263313C61.6961 0.488371 62.9758 0.509898 65.0246 1.26518C68.1774 2.42743 69.8532 3.70638 72.0246 6.27451C74.5106 9.21478 75.4779 11.477 76.0246 15.2913C76.4419 18.2024 76.2974 19.9681 75.5246 22.8053C74.9035 25.0857 73.9679 26.1489 73.0246 28.3156C72.0098 30.6466 70.6307 31.7858 70.5246 34.3268C70.4316 36.5553 72.0246 39.837 72.0246 39.837C72.0246 39.837 69.5124 40.314 68.0246 39.837C66.6835 39.4071 66.1962 39.1167 65.0246 38.3342C63.2673 37.1605 62.0516 36.2896 60.5246 34.8277C58.8014 33.178 57.545 32.1487 57.0246 29.8184C56.7262 28.482 57.0246 26.3118 57.0246 26.3118C57.0246 26.3118 59.5253 26.2916 61.0246 25.8109C62.2722 25.4109 62.923 25.0181 64.0246 24.3081C65.0761 23.6304 65.715 23.2589 66.5246 22.3044C68.0047 20.5596 68.2452 19.0667 68.5246 16.7941C68.7883 14.6496 68.6812 13.3421 68.0246 11.2838C67.3314 9.11074 66.6099 7.91224 65.0246 6.27451C63.5542 4.75549 62.5195 3.96396 60.5246 3.26891C58.6711 2.62314 57.4735 2.53808 55.5246 2.76798C53.6849 2.985 52.6189 3.32578 51.0246 4.27078C48.7637 5.61092 47.6201 6.88798 46.5246 9.28011C45.6142 11.268 45.513 12.6032 45.5246 14.7904C45.5384 17.4003 45.6984 19.056 47.0246 21.3025Z" fill="#0F2A5C"/>
<path d="M104.978 0.0490189H81.4776C81.4776 0.0490189 80.9741 2.28246 81.4776 3.55555C81.8372 4.4649 82.341 4.81755 82.9774 5.55928C83.6975 6.39846 83.6398 6.34068 84.4774 7.06208C85.2178 7.69971 86.088 8.66266 86.9776 9.06581C87.7111 9.39826 88.9776 9.56675 88.9776 9.56675H102.978C103.954 9.56675 105.03 9.83045 105.977 10.0677C106.825 10.2799 106.71 10.1515 107.478 10.5686C108.478 11.1125 109.081 11.3677 109.978 12.0714C110.847 12.7541 111.978 14.0751 111.978 14.0751C111.978 14.0751 113.429 8.832 111.977 6.06022C111.65 5.4356 111.386 4.63086 110.977 4.05648C110.252 3.03645 109.921 2.87513 108.978 2.05275C107.66 0.904006 104.978 0.0490189 104.978 0.0490189Z" fill="#0F2A5C"/>
<path d="M114.477 2.05275C113.595 1.33225 111.977 0.54995 111.977 0.54995L113.977 4.55741C114.563 5.73117 115.088 6.31015 115.477 7.56301C116.351 10.3707 116.018 12.3269 114.977 15.077C114.42 16.5518 112.977 18.5835 112.977 18.5835C112.977 18.5835 111.787 21.0367 110.477 22.0901C109.456 22.9115 108.7 23.1218 107.477 23.5929C102.921 25.3485 94.9774 23.5929 94.9774 23.5929L97.9774 12.0714C97.9774 12.0714 93.4136 10.8289 90.9774 12.0714C90.35 12.3914 89.4774 13.0733 89.4774 13.0733L85.9774 21.5891L84.4774 25.5966L82.9774 29.6041L81.4774 33.1106H104.477C104.477 33.1106 107.268 33.0615 108.977 32.6097C110.837 32.1182 111.851 31.6339 113.477 30.6059C115.233 29.4965 116.221 28.7543 117.477 27.0994C118.167 26.1916 118.435 25.5974 118.977 24.5947C119.394 23.8257 119.688 23.4166 119.977 22.591C120.371 21.4681 120.351 20.7686 120.477 19.5854C120.706 17.4457 120.477 16.227 120.477 14.0751C120.477 13.097 120.588 12.5424 120.477 11.5705C120.317 10.1554 120.133 9.32778 119.477 8.06395C118.774 6.70808 118.454 6.23211 117.477 5.05835C116.501 3.88459 115.66 3.01782 114.477 2.05275Z" fill="#0F2A5C"/>
</svg>
